<svg width="20" height="20" viewBox="0 0 20 20" fill="none" xmlns="http://www.w3.org/2000/svg">
<path d="M18.6332 2.0757H14.7294V1.07623C14.7294 0.481435 14.2472 0 13.6531 0C13.0598 0 12.5769 0.481435 12.5769 1.07623V2.0757H7.42391V1.07623C7.42391 0.481435 6.94176 0 6.34767 0C5.75359 0 5.27144 0.481435 5.27144 1.07623V2.0757H1.36615C0.772069 2.0757 0.289917 2.55713 0.289917 3.15193V18.9238C0.289917 19.5193 0.772069 20 1.36615 20H18.6332C19.2273 20 19.7095 19.5193 19.7095 18.9238V3.15193C19.7095 2.55713 19.2266 2.0757 18.6332 2.0757ZM2.94169 17.8482C2.66554 17.8482 2.44167 17.6244 2.44167 17.3482V7.40153C2.44167 7.12538 2.66552 6.90153 2.94167 6.90153H17.057C17.3331 6.90153 17.557 7.12538 17.557 7.40153V17.3476C17.557 17.6237 17.3332 17.8475 17.057 17.8476L2.94169 17.8482Z" fill="#1D1D1D"/>
<rect x="4.44446" y="8.88892" width="2.22222" height="2.22222" rx="0.5" fill="#1D1D1D"/>
<rect x="4.44446" y="13.3333" width="2.22222" height="2.22222" rx="0.5" fill="#1D1D1D"/>
<rect x="8.88892" y="8.88892" width="2.22222" height="2.22222" rx="0.5" fill="#1D1D1D"/>
<rect x="8.88892" y="13.3333" width="2.22222" height="2.22222" rx="0.5" fill="#1D1D1D"/>
<rect x="13.3334" y="8.88892" width="2.22222" height="2.22222" rx="0.5" fill="#1D1D1D"/>
<rect x="13.3334" y="13.3333" width="2.22222" height="2.22222" rx="0.5" fill="#1D1D1D"/>
</svg>
