<svg width="130" height="130" viewBox="0 0 130 130" fill="none" xmlns="http://www.w3.org/2000/svg">
<path d="M130 65C130 78.378 125.872 91.4301 118.18 102.375C110.487 113.321 99.6051 121.626 87.018 126.157L80.4126 107.81C89.2235 104.638 96.8411 98.8244 102.226 91.1627C107.611 83.5011 110.5 74.3646 110.5 65L130 65Z" fill="#FFA439"/>
<path d="M85.0861 126.819C72.3629 130.953 58.674 131.06 45.8874 127.127C33.1008 123.193 21.8394 115.41 13.6399 104.839L29.0479 92.8873C34.7876 100.287 42.6706 105.735 51.6212 108.489C60.5718 111.242 70.154 111.167 79.0603 108.273L85.0861 126.819Z" fill="#FF5555"/>
<path d="M12.4139 103.206C4.55051 92.383 0.21815 79.3973 0.00801881 66.021C-0.202112 52.6446 3.72022 39.5293 11.2398 28.4646L27.3678 39.4252C22.1042 47.1705 19.3585 56.3512 19.5056 65.7147C19.6527 75.0781 22.6854 84.1681 28.1897 91.7442L12.4139 103.206Z" fill="#00C294"/>
<path d="M85.0861 3.18133C97.8093 7.31536 108.947 15.2745 116.98 25.9727C125.012 36.6709 129.548 49.5869 129.968 62.9583L110.478 63.5708C110.183 54.2108 107.008 45.1696 101.386 37.6809C95.763 30.1922 87.9665 24.6208 79.0603 21.7269L85.0861 3.18133Z" fill="#FFDA44"/>
<path d="M12.4139 26.794C20.2773 15.9709 31.2887 7.83781 43.9454 3.50445C56.6021 -0.828913 70.2876 -1.15143 83.1344 2.58091L77.6941 21.3066C68.7013 18.694 59.1215 18.9198 50.2618 21.9531C41.4021 24.9865 33.6941 30.6797 28.1897 38.2558L12.4139 26.794Z" fill="#3569D9"/>
</svg>
