<svg width="130" height="130" viewBox="0 0 130 130" fill="none" xmlns="http://www.w3.org/2000/svg">
<g clip-path="url(#clip0_452:4508)">
<path d="M65 125.938C98.6549 125.938 125.938 98.6549 125.938 65C125.938 31.3451 98.6549 4.0625 65 4.0625C31.3451 4.0625 4.0625 31.3451 4.0625 65C4.0625 98.6549 31.3451 125.938 65 125.938Z" fill="#FF9811"/>
<path d="M65 115.781C93.0457 115.781 115.781 93.0457 115.781 65C115.781 36.9543 93.0457 14.2188 65 14.2188C36.9543 14.2188 14.2188 36.9543 14.2188 65C14.2188 93.0457 36.9543 115.781 65 115.781Z" fill="#FFDA44"/>
<path d="M112.781 65C112.781 91.3889 91.3889 112.781 65 112.781C38.6111 112.781 17.2188 91.3889 17.2188 65C17.2188 38.6111 38.6111 17.2188 65 17.2188C91.3889 17.2188 112.781 38.6111 112.781 65Z" fill="#FFDA44" stroke="#E78402" stroke-width="6"/>
<path d="M127 65C127 99.2417 99.2417 127 65 127C30.7583 127 3 99.2417 3 65C3 30.7583 30.7583 3 65 3C99.2417 3 127 30.7583 127 65Z" stroke="#E78402" stroke-width="6"/>
<path d="M23.3477 23.347L106.653 106.653L23.3477 23.347Z" fill="#FF5023"/>
<path d="M23.3477 106.653L106.653 23.347L23.3477 106.653Z" fill="#FF5023"/>
<path d="M50.7812 38.5938C55.2686 38.5938 58.9062 34.9561 58.9062 30.4688C58.9062 25.9814 55.2686 22.3438 50.7812 22.3438C46.2939 22.3438 42.6562 25.9814 42.6562 30.4688C42.6562 34.9561 46.2939 38.5938 50.7812 38.5938Z" fill="#AB2300"/>
<path d="M28.4375 50.7812C30.6812 50.7812 32.5 48.9624 32.5 46.7188C32.5 44.4751 30.6812 42.6562 28.4375 42.6562C26.1938 42.6562 24.375 44.4751 24.375 46.7188C24.375 48.9624 26.1938 50.7812 28.4375 50.7812Z" fill="#FF5023"/>
<path d="M40.625 58.9062C42.8687 58.9062 44.6875 57.0874 44.6875 54.8438C44.6875 52.6001 42.8687 50.7812 40.625 50.7812C38.3813 50.7812 36.5625 52.6001 36.5625 54.8438C36.5625 57.0874 38.3813 58.9062 40.625 58.9062Z" fill="#FF5023"/>
<path d="M31.4844 88.3594C35.9717 88.3594 39.6094 84.7217 39.6094 80.2344C39.6094 75.7471 35.9717 72.1094 31.4844 72.1094C26.9971 72.1094 23.3594 75.7471 23.3594 80.2344C23.3594 84.7217 26.9971 88.3594 31.4844 88.3594Z" fill="#AB2C23"/>
<path d="M43.0938 101.156C45.3374 101.156 47.1562 99.3374 47.1562 97.0938C47.1562 94.8501 45.3374 93.0312 43.0938 93.0312C40.8501 93.0312 39.0312 94.8501 39.0312 97.0938C39.0312 99.3374 40.8501 101.156 43.0938 101.156Z" fill="#FF5023"/>
<path d="M62.0938 92.1562C64.3374 92.1562 66.1562 90.3374 66.1562 88.0938C66.1562 85.8501 64.3374 84.0312 62.0938 84.0312C59.8501 84.0312 58.0312 85.8501 58.0312 88.0938C58.0312 90.3374 59.8501 92.1562 62.0938 92.1562Z" fill="#FF5023"/>
<path d="M90.1562 103.281C94.6436 103.281 98.2812 99.6436 98.2812 95.1562C98.2812 90.6689 94.6436 87.0312 90.1562 87.0312C85.6689 87.0312 82.0312 90.6689 82.0312 95.1562C82.0312 99.6436 85.6689 103.281 90.1562 103.281Z" fill="#AB2300"/>
<path d="M101.562 87.3438C103.806 87.3438 105.625 85.5249 105.625 83.2812C105.625 81.0376 103.806 79.2188 101.562 79.2188C99.3188 79.2188 97.5 81.0376 97.5 83.2812C97.5 85.5249 99.3188 87.3438 101.562 87.3438Z" fill="#FF5023"/>
<path d="M89.375 79.2188C91.6187 79.2188 93.4375 77.3999 93.4375 75.1562C93.4375 72.9126 91.6187 71.0938 89.375 71.0938C87.1313 71.0938 85.3125 72.9126 85.3125 75.1562C85.3125 77.3999 87.1313 79.2188 89.375 79.2188Z" fill="#FF5023"/>
<path d="M98.5156 57.8906C103.003 57.8906 106.641 54.2529 106.641 49.7656C106.641 45.2783 103.003 41.6406 98.5156 41.6406C94.0283 41.6406 90.3906 45.2783 90.3906 49.7656C90.3906 54.2529 94.0283 57.8906 98.5156 57.8906Z" fill="#AB2300"/>
<path d="M82.0938 54.1562C84.3374 54.1562 86.1562 52.3374 86.1562 50.0938C86.1562 47.8501 84.3374 46.0312 82.0938 46.0312C79.8501 46.0312 78.0312 47.8501 78.0312 50.0938C78.0312 52.3374 79.8501 54.1562 82.0938 54.1562Z" fill="#FF5023"/>
<path d="M69.1406 37.6719C71.3843 37.6719 73.2031 35.853 73.2031 33.6094C73.2031 31.3657 71.3843 29.5469 69.1406 29.5469C66.897 29.5469 65.0781 31.3657 65.0781 33.6094C65.0781 35.853 66.897 37.6719 69.1406 37.6719Z" fill="#FF5023"/>
<path d="M16 25L64 64.5H125.5" stroke="#E78402" stroke-width="5"/>
<path d="M125.022 64.6133L65 64.6134L92.5 122.5" stroke="#E78402" stroke-width="5"/>
<path d="M124.897 65.0099L64.5 65.0098L92.5934 7.00131" stroke="#E78402" stroke-width="5"/>
<path d="M18.5219 26.9038L65.3387 65.0611L16 105" stroke="#E78402" stroke-width="5"/>
<path d="M50.7812 40.625C52.79 40.625 54.7536 40.0294 56.4238 38.9134C58.0939 37.7974 59.3957 36.2112 60.1644 34.3554C60.9331 32.4996 61.1342 30.4575 60.7423 28.4874C60.3505 26.5173 59.3832 24.7076 57.9628 23.2872C56.5424 21.8668 54.7328 20.8995 52.7626 20.5077C50.7925 20.1158 48.7504 20.3169 46.8946 21.0856C45.0388 21.8543 43.4526 23.1561 42.3366 24.8262C41.2207 26.4964 40.625 28.46 40.625 30.4688C40.6282 33.1614 41.6993 35.7428 43.6033 37.6468C45.5072 39.5507 48.0886 40.6218 50.7812 40.625ZM50.7812 24.375C51.9865 24.375 53.1646 24.7324 54.1668 25.402C55.1689 26.0716 55.9499 27.0233 56.4111 28.1368C56.8724 29.2503 56.993 30.4755 56.7579 31.6576C56.5228 32.8397 55.9424 33.9255 55.0902 34.7777C54.238 35.6299 53.1522 36.2103 51.9701 36.4454C50.788 36.6805 49.5628 36.5599 48.4493 36.0987C47.3358 35.6374 46.3841 34.8564 45.7145 33.8543C45.0449 32.8522 44.6875 31.674 44.6875 30.4688C44.6875 28.8526 45.3295 27.3026 46.4723 26.1598C47.6151 25.017 49.1651 24.375 50.7812 24.375Z" fill="#C23814"/>
<path d="M28.4375 52.8125C29.6427 52.8125 30.8209 52.4551 31.823 51.7855C32.8251 51.1159 33.6062 50.1642 34.0674 49.0507C34.5286 47.9373 34.6493 46.712 34.4142 45.5299C34.179 44.3479 33.5987 43.2621 32.7464 42.4098C31.8942 41.5576 30.8084 40.9772 29.6263 40.7421C28.4443 40.507 27.219 40.6277 26.1055 41.0889C24.992 41.5501 24.0403 42.3312 23.3707 43.3333C22.7011 44.3354 22.3438 45.5135 22.3438 46.7188C22.3438 48.3349 22.9858 49.8849 24.1286 51.0277C25.2714 52.1705 26.8213 52.8125 28.4375 52.8125ZM28.4375 44.6875C28.8392 44.6875 29.232 44.8066 29.566 45.0298C29.9 45.253 30.1604 45.5703 30.3141 45.9414C30.4679 46.3126 30.5081 46.721 30.4297 47.115C30.3513 47.5091 30.1579 47.871 29.8738 48.1551C29.5897 48.4392 29.2278 48.6326 28.8338 48.711C28.4398 48.7894 28.0313 48.7491 27.6602 48.5954C27.289 48.4417 26.9718 48.1813 26.7486 47.8473C26.5254 47.5132 26.4063 47.1205 26.4063 46.7188C26.4063 46.18 26.6203 45.6634 27.0012 45.2825C27.3821 44.9015 27.8988 44.6875 28.4375 44.6875Z" fill="#C23814"/>
<path d="M40.625 60.9375C41.8302 60.9375 43.0084 60.5801 44.0105 59.9105C45.0126 59.2409 45.7937 58.2892 46.2549 57.1757C46.7161 56.0623 46.8368 54.837 46.6017 53.6549C46.3665 52.4729 45.7862 51.3871 44.9339 50.5348C44.0817 49.6826 42.9959 49.1022 41.8138 48.8671C40.6318 48.632 39.4065 48.7527 38.293 49.2139C37.1795 49.6751 36.2278 50.4562 35.5582 51.4583C34.8886 52.4604 34.5312 53.6385 34.5312 54.8438C34.5313 56.4599 35.1733 58.0099 36.3161 59.1527C37.4589 60.2955 39.0088 60.9375 40.625 60.9375ZM40.625 52.8125C41.0267 52.8125 41.4195 52.9316 41.7535 53.1548C42.0875 53.378 42.3479 53.6953 42.5016 54.0664C42.6554 54.4376 42.6956 54.846 42.6172 55.24C42.5388 55.6341 42.3454 55.996 42.0613 56.2801C41.7772 56.5642 41.4153 56.7576 41.0213 56.836C40.6273 56.9144 40.2188 56.8741 39.8477 56.7204C39.4765 56.5667 39.1593 56.3063 38.9361 55.9723C38.7129 55.6382 38.5937 55.2455 38.5937 54.8438C38.5937 54.305 38.8078 53.7884 39.1887 53.4075C39.5696 53.0265 40.0863 52.8125 40.625 52.8125Z" fill="#C23814"/>
<path d="M31.4844 90.3906C33.4931 90.3906 35.4567 89.795 37.1269 88.679C38.7971 87.563 40.0988 85.9768 40.8675 84.121C41.6362 82.2652 41.8374 80.2231 41.4455 78.253C41.0536 76.2828 40.0863 74.4732 38.6659 73.0528C37.2456 71.6324 35.4359 70.6651 33.4658 70.2732C31.4956 69.8814 29.4536 70.0825 27.5977 70.8512C25.7419 71.6199 24.1557 72.9217 23.0398 74.5918C21.9238 76.262 21.3281 78.2256 21.3281 80.2344C21.3314 82.927 22.4024 85.5084 24.3064 87.4123C26.2104 89.3163 28.7918 90.3874 31.4844 90.3906ZM31.4844 74.1406C32.6896 74.1406 33.8678 74.498 34.8699 75.1676C35.872 75.8372 36.653 76.7889 37.1143 77.9024C37.5755 79.0159 37.6962 80.2411 37.461 81.4232C37.2259 82.6053 36.6455 83.6911 35.7933 84.5433C34.9411 85.3955 33.8553 85.9759 32.6732 86.211C31.4911 86.4461 30.2659 86.3255 29.1524 85.8642C28.0389 85.403 27.0872 84.622 26.4176 83.6199C25.748 82.6177 25.3906 81.4396 25.3906 80.2344C25.3906 78.6182 26.0326 77.0682 27.1754 75.9254C28.3182 74.7826 29.8682 74.1406 31.4844 74.1406Z" fill="#C23814"/>
<path d="M43.0937 103.187C44.299 103.187 45.4771 102.83 46.4793 102.16C47.4814 101.491 48.2624 100.539 48.7236 99.4256C49.1849 98.3121 49.3055 97.0869 49.0704 95.9048C48.8353 94.7227 48.2549 93.6369 47.4027 92.7847C46.5505 91.9325 45.4647 91.3521 44.2826 91.117C43.1005 90.8818 41.8753 91.0025 40.7618 91.4637C39.6483 91.925 38.6966 92.706 38.027 93.7081C37.3574 94.7102 37 95.8884 37 97.0936C37 98.7098 37.642 100.26 38.7848 101.403C39.9276 102.545 41.4776 103.187 43.0937 103.187ZM43.0937 95.0624C43.4955 95.0624 43.8882 95.1815 44.2223 95.4047C44.5563 95.6279 44.8166 95.9451 44.9704 96.3163C45.1241 96.6875 45.1643 97.0959 45.086 97.4899C45.0076 97.8839 44.8141 98.2459 44.5301 98.5299C44.246 98.814 43.8841 99.0075 43.49 99.0858C43.096 99.1642 42.6876 99.124 42.3164 98.9703C41.9453 98.8165 41.628 98.5562 41.4048 98.2221C41.1816 97.8881 41.0625 97.4954 41.0625 97.0936C41.0625 96.5549 41.2765 96.0383 41.6574 95.6573C42.0384 95.2764 42.555 95.0624 43.0937 95.0624Z" fill="#C23814"/>
<path d="M62.0937 94.1874C63.299 94.1874 64.4771 93.83 65.4793 93.1604C66.4814 92.4908 67.2624 91.5391 67.7236 90.4256C68.1849 89.3121 68.3055 88.0869 68.0704 86.9048C67.8353 85.7228 67.2549 84.637 66.4027 83.7847C65.5505 82.9325 64.4647 82.3521 63.2826 82.117C62.1005 81.8819 60.8753 82.0026 59.7618 82.4638C58.6483 82.925 57.6966 83.706 57.027 84.7082C56.3574 85.7103 56 86.8884 56 88.0937C56 89.7098 56.642 91.2598 57.7848 92.4026C58.9276 93.5454 60.4776 94.1874 62.0937 94.1874ZM62.0937 86.0624C62.4955 86.0624 62.8882 86.1815 63.2223 86.4047C63.5563 86.6279 63.8166 86.9452 63.9704 87.3163C64.1241 87.6875 64.1643 88.0959 64.086 88.4899C64.0076 88.884 63.8141 89.2459 63.5301 89.53C63.246 89.814 62.8841 90.0075 62.49 90.0859C62.096 90.1643 61.6876 90.124 61.3164 89.9703C60.9453 89.8165 60.628 89.5562 60.4048 89.2222C60.1816 88.8881 60.0625 88.4954 60.0625 88.0937C60.0625 87.5549 60.2765 87.0383 60.6574 86.6573C61.0384 86.2764 61.555 86.0624 62.0937 86.0624Z" fill="#C23814"/>
<path d="M26.4062 56.875H24.375C23.8363 56.875 23.3196 57.089 22.9387 57.4699C22.5578 57.8509 22.3438 58.3675 22.3438 58.9062C22.3438 59.445 22.5578 59.9616 22.9387 60.3425C23.3196 60.7235 23.8363 60.9375 24.375 60.9375H26.4062C26.945 60.9375 27.4616 60.7235 27.8426 60.3425C28.2235 59.9616 28.4375 59.445 28.4375 58.9062C28.4375 58.3675 28.2235 57.8509 27.8426 57.4699C27.4616 57.089 26.945 56.875 26.4062 56.875Z" fill="#231F20"/>
<path d="M58.9062 42.6563H56.875C56.3363 42.6563 55.8196 42.8703 55.4387 43.2512C55.0578 43.6321 54.8438 44.1488 54.8438 44.6875C54.8438 45.2262 55.0578 45.7429 55.4387 46.1238C55.8196 46.5048 56.3363 46.7188 56.875 46.7188H58.9062C59.445 46.7188 59.9616 46.5048 60.3426 46.1238C60.7235 45.7429 60.9375 45.2262 60.9375 44.6875C60.9375 44.1488 60.7235 43.6321 60.3426 43.2512C59.9616 42.8703 59.445 42.6563 58.9062 42.6563Z" fill="#231F20"/>
<path d="M46.7188 75.1562H48.75C49.2887 75.1562 49.8054 74.9422 50.1863 74.5613C50.5672 74.1803 50.7812 73.6637 50.7812 73.1249C50.7812 72.5862 50.5672 72.0696 50.1863 71.6886C49.8054 71.3077 49.2887 71.0937 48.75 71.0937H46.7188C46.18 71.0937 45.6634 71.3077 45.2824 71.6886C44.9015 72.0696 44.6875 72.5862 44.6875 73.1249C44.6875 73.6637 44.9015 74.1803 45.2824 74.5613C45.6634 74.9422 46.18 75.1562 46.7188 75.1562Z" fill="#231F20"/>
<path d="M57.4697 100.126L55.4385 102.157C55.2445 102.345 55.0897 102.569 54.9833 102.817C54.8768 103.065 54.8208 103.331 54.8184 103.601C54.8161 103.871 54.8675 104.138 54.9696 104.388C55.0718 104.637 55.2226 104.864 55.4133 105.055C55.604 105.246 55.8308 105.396 56.0804 105.499C56.3301 105.601 56.5976 105.652 56.8673 105.65C57.137 105.647 57.4035 105.591 57.6513 105.485C57.8991 105.378 58.1233 105.224 58.3107 105.03L60.3419 102.998C60.7119 102.615 60.9167 102.102 60.912 101.57C60.9074 101.037 60.6938 100.528 60.3172 100.151C59.9406 99.7744 59.4311 99.5607 58.8985 99.5561C58.3659 99.5515 57.8528 99.7562 57.4697 100.126Z" fill="#231F20"/>
<path d="M90.1563 84.9998C88.1475 84.9998 86.1839 85.5955 84.5137 86.7115C82.8436 87.8275 81.5418 89.4137 80.7731 91.2695C80.0044 93.1253 79.8033 95.1674 80.1952 97.1375C80.587 99.1076 81.5543 100.917 82.9747 102.338C84.3951 103.758 86.2047 104.725 88.1749 105.117C90.145 105.509 92.1871 105.308 94.0429 104.539C95.8987 103.771 97.4849 102.469 98.6009 100.799C99.7169 99.1284 100.313 97.1648 100.313 95.1561C100.309 92.4635 99.2382 89.8821 97.3342 87.9781C95.4303 86.0741 92.8489 85.0031 90.1563 84.9998ZM90.1563 101.25C88.951 101.25 87.7729 100.892 86.7708 100.223C85.7686 99.5533 84.9876 98.6016 84.5264 97.4881C84.0651 96.3746 83.9445 95.1493 84.1796 93.9673C84.4147 92.7852 84.9951 91.6994 85.8473 90.8472C86.6996 89.9949 87.7854 89.4146 88.9674 89.1794C90.1495 88.9443 91.3747 89.065 92.4882 89.5262C93.6017 89.9874 94.5534 90.7685 95.223 91.7706C95.8926 92.7727 96.25 93.9509 96.25 95.1561C96.25 96.7723 95.608 98.3222 94.4652 99.465C93.3224 100.608 91.7724 101.25 90.1563 101.25Z" fill="#C23814"/>
<path d="M101.563 77.1874C100.357 77.1874 99.1791 77.5448 98.177 78.2144C97.1749 78.884 96.3938 79.8357 95.9326 80.9492C95.4714 82.0627 95.3507 83.2879 95.5858 84.47C95.821 85.6521 96.4013 86.7379 97.2536 87.5901C98.1058 88.4423 99.1916 89.0227 100.374 89.2578C101.556 89.4929 102.781 89.3723 103.894 88.911C105.008 88.4498 105.96 87.6688 106.629 86.6667C107.299 85.6645 107.656 84.4864 107.656 83.2812C107.656 81.665 107.014 80.115 105.871 78.9722C104.729 77.8294 103.179 77.1874 101.563 77.1874ZM101.563 85.3124C101.161 85.3124 100.768 85.1933 100.434 84.9701C100.1 84.7469 99.8396 84.4296 99.6859 84.0585C99.5321 83.6873 99.4919 83.2789 99.5703 82.8849C99.6487 82.4909 99.8421 82.1289 100.126 81.8448C100.41 81.5608 100.772 81.3673 101.166 81.2889C101.56 81.2106 101.969 81.2508 102.34 81.4045C102.711 81.5583 103.028 81.8186 103.251 82.1527C103.475 82.4867 103.594 82.8794 103.594 83.2812C103.594 83.8199 103.38 84.3365 102.999 84.7175C102.618 85.0984 102.101 85.3124 101.563 85.3124Z" fill="#C23814"/>
<path d="M89.375 69.0625C88.1698 69.0625 86.9916 69.4199 85.9895 70.0895C84.9874 70.759 84.2063 71.7108 83.7451 72.8242C83.2839 73.9377 83.1632 75.163 83.3983 76.345C83.6335 77.5271 84.2138 78.6129 85.0661 79.4651C85.9183 80.3174 87.0041 80.8977 88.1862 81.1329C89.3682 81.368 90.5935 81.2473 91.707 80.7861C92.8205 80.3249 93.7722 79.5438 94.4418 78.5417C95.1114 77.5396 95.4688 76.3614 95.4688 75.1562C95.4688 73.5401 94.8267 71.9901 93.6839 70.8473C92.5411 69.7045 90.9912 69.0625 89.375 69.0625ZM89.375 77.1875C88.9733 77.1875 88.5805 77.0683 88.2465 76.8451C87.9125 76.6219 87.6521 76.3047 87.4984 75.9335C87.3446 75.5624 87.3044 75.154 87.3828 74.7599C87.4612 74.3659 87.6546 74.004 87.9387 73.7199C88.2228 73.4358 88.5847 73.2424 88.9787 73.164C89.3728 73.0856 89.7812 73.1259 90.1523 73.2796C90.5235 73.4333 90.8407 73.6937 91.0639 74.0277C91.2871 74.3618 91.4063 74.7545 91.4063 75.1562C91.4063 75.6949 91.1923 76.2116 90.8113 76.5925C90.4304 76.9735 89.9137 77.1875 89.375 77.1875Z" fill="#C23814"/>
<path d="M98.5156 39.6094C96.5069 39.6094 94.5433 40.205 92.8731 41.321C91.2029 42.437 89.9012 44.0232 89.1325 45.879C88.3638 47.7348 88.1626 49.7769 88.5545 51.747C88.9464 53.7171 89.9137 55.5268 91.3341 56.9472C92.7545 58.3676 94.5641 59.3349 96.5342 59.7267C98.5044 60.1186 100.546 59.9175 102.402 59.1488C104.258 58.3801 105.844 57.0783 106.96 55.4082C108.076 53.738 108.672 51.7744 108.672 49.7656C108.669 47.073 107.598 44.4916 105.694 42.5876C103.79 40.6837 101.208 39.6126 98.5156 39.6094ZM98.5156 55.8594C97.3104 55.8594 96.1322 55.502 95.1301 54.8324C94.128 54.1628 93.347 53.2111 92.8857 52.0976C92.4245 50.9841 92.3038 49.7589 92.539 48.5768C92.7741 47.3947 93.3545 46.3089 94.2067 45.4567C95.0589 44.6045 96.1447 44.0241 97.3268 43.789C98.5089 43.5539 99.7341 43.6745 100.848 44.1357C101.961 44.597 102.913 45.378 103.582 46.3801C104.252 47.3822 104.609 48.5604 104.609 49.7656C104.609 51.3818 103.967 52.9318 102.825 54.0746C101.682 55.2174 100.132 55.8594 98.5156 55.8594Z" fill="#C23814"/>
<path d="M82.0938 43.9998C80.8885 43.9998 79.7104 44.3572 78.7082 45.0268C77.7061 45.6964 76.9251 46.6481 76.4639 47.7616C76.0026 48.8751 75.882 50.1004 76.1171 51.2824C76.3522 52.4645 76.9326 53.5503 77.7848 54.4025C78.6371 55.2548 79.7229 55.8351 80.9049 56.0703C82.087 56.3054 83.3122 56.1847 84.4257 55.7235C85.5392 55.2623 86.4909 54.4812 87.1605 53.4791C87.8301 52.477 88.1875 51.2988 88.1875 50.0936C88.1875 48.4774 87.5455 46.9275 86.4027 45.7847C85.2599 44.6419 83.7099 43.9998 82.0938 43.9998ZM82.0938 52.1248C81.692 52.1248 81.2993 52.0057 80.9653 51.7825C80.6312 51.5593 80.3709 51.2421 80.2171 50.8709C80.0634 50.4998 80.0232 50.0913 80.1015 49.6973C80.1799 49.3033 80.3734 48.9414 80.6574 48.6573C80.9415 48.3732 81.3035 48.1798 81.6975 48.1014C82.0915 48.023 82.4999 48.0632 82.8711 48.217C83.2422 48.3707 83.5595 48.6311 83.7827 48.9651C84.0059 49.2991 84.125 49.6919 84.125 50.0936C84.125 50.6323 83.911 51.149 83.5301 51.5299C83.1491 51.9108 82.6325 52.1248 82.0938 52.1248Z" fill="#C23814"/>
<path d="M69.1406 27.5155C67.9354 27.5155 66.7572 27.8729 65.7551 28.5425C64.753 29.212 63.972 30.1638 63.5107 31.2772C63.0495 32.3907 62.9288 33.616 63.164 34.7981C63.3991 35.9801 63.9795 37.0659 64.8317 37.9182C65.6839 38.7704 66.7697 39.3508 67.9518 39.5859C69.1339 39.821 70.3591 39.7003 71.4726 39.2391C72.5861 38.7779 73.5378 37.9968 74.2074 36.9947C74.877 35.9926 75.2344 34.8145 75.2344 33.6092C75.2344 31.9931 74.5924 30.4431 73.4496 29.3003C72.3068 28.1575 70.7568 27.5155 69.1406 27.5155ZM69.1406 35.6405C68.7389 35.6405 68.3462 35.5213 68.0121 35.2981C67.6781 35.075 67.4177 34.7577 67.264 34.3865C67.1103 34.0154 67.07 33.607 67.1484 33.2129C67.2268 32.8189 67.4202 32.457 67.7043 32.1729C67.9884 31.8888 68.3503 31.6954 68.7444 31.617C69.1384 31.5386 69.5468 31.5789 69.918 31.7326C70.2891 31.8863 70.6064 32.1467 70.8296 32.4807C71.0528 32.8148 71.1719 33.2075 71.1719 33.6092C71.1719 34.1479 70.9579 34.6646 70.5769 35.0455C70.196 35.4265 69.6794 35.6405 69.1406 35.6405Z" fill="#C23814"/>
<path d="M103.594 73.125H105.625C106.164 73.125 106.68 72.911 107.061 72.53C107.442 72.1491 107.656 71.6324 107.656 71.0937C107.656 70.555 107.442 70.0383 107.061 69.6574C106.68 69.2765 106.164 69.0625 105.625 69.0625H103.594C103.055 69.0625 102.538 69.2765 102.157 69.6574C101.777 70.0383 101.562 70.555 101.562 71.0937C101.562 71.6324 101.777 72.1491 102.157 72.53C102.538 72.911 103.055 73.125 103.594 73.125Z" fill="#231F20"/>
<path d="M70.0312 97.0623H72.0625C72.6012 97.0623 73.1179 96.8483 73.4988 96.4674C73.8797 96.0865 74.0938 95.5698 74.0938 95.0311C74.0938 94.4924 73.8797 93.9757 73.4988 93.5948C73.1179 93.2139 72.6012 92.9998 72.0625 92.9998H70.0312C69.4925 92.9998 68.9759 93.2139 68.5949 93.5948C68.214 93.9757 68 94.4924 68 95.0311C68 95.5698 68.214 96.0865 68.5949 96.4674C68.9759 96.8483 69.4925 97.0623 70.0312 97.0623Z" fill="#231F20"/>
<path d="M83.2812 54.8437H81.25C80.7113 54.8437 80.1946 55.0577 79.8137 55.4387C79.4328 55.8196 79.2188 56.3362 79.2188 56.875C79.2188 57.4137 79.4328 57.9303 79.8137 58.3113C80.1946 58.6922 80.7113 58.9062 81.25 58.9062H83.2812C83.82 58.9062 84.3366 58.6922 84.7176 58.3113C85.0985 57.9303 85.3125 57.4137 85.3125 56.875C85.3125 56.3362 85.0985 55.8196 84.7176 55.4387C84.3366 55.0577 83.82 54.8437 83.2812 54.8437Z" fill="#231F20"/>
<path d="M71.0933 30.4687C71.632 30.4686 72.1486 30.2545 72.5294 29.8735L74.5607 27.8423C74.9307 27.4592 75.1354 26.9461 75.1308 26.4135C75.1262 25.8809 74.9125 25.3715 74.5359 24.9949C74.1593 24.6182 73.6498 24.4046 73.1173 24.4C72.5847 24.3954 72.0716 24.6001 71.6885 24.9701L69.6572 27.0014C69.3732 27.2854 69.1798 27.6473 69.1015 28.0413C69.0232 28.4353 69.0634 28.8436 69.2171 29.2147C69.3708 29.5858 69.6311 29.903 69.965 30.1262C70.299 30.3494 70.6916 30.4686 71.0933 30.4687Z" fill="#231F20"/>
</g>
<defs>
<clipPath id="clip0_452:4508">
<rect width="130" height="130" fill="white"/>
</clipPath>
</defs>
</svg>
