<svg width="20" height="20" viewBox="0 0 20 20" fill="none" xmlns="http://www.w3.org/2000/svg">
<path d="M11.8768 20H8.12487C7.88979 20 7.66176 19.9221 7.4786 19.7792C7.29543 19.6362 7.16814 19.4368 7.11784 19.214L6.69832 17.33C6.13869 17.0921 5.60803 16.7946 5.11613 16.443L3.22265 17.028C2.99853 17.0973 2.7567 17.0902 2.53733 17.0078C2.31795 16.9254 2.13423 16.7727 2.01668 16.575L0.136596 13.424C0.0202711 13.2261 -0.0233943 12.9958 0.0127435 12.7708C0.0488813 12.5457 0.162683 12.3392 0.335529 12.185L1.80434 10.885C1.73755 10.2961 1.73755 9.70189 1.80434 9.113L0.335529 7.816C0.162438 7.66177 0.0484818 7.45507 0.0123381 7.22978C-0.0238056 7.00449 0.0200072 6.77397 0.136596 6.576L2.01255 3.423C2.13011 3.22532 2.31383 3.07259 2.5332 2.99019C2.75258 2.90778 2.9944 2.90066 3.21852 2.97L5.112 3.555C5.36351 3.375 5.62532 3.207 5.89537 3.055C6.15615 2.913 6.42414 2.784 6.69832 2.669L7.11887 0.787C7.16893 0.564198 7.29598 0.364688 7.47895 0.221549C7.66193 0.0784098 7.88983 0.000239966 8.12487 0H11.8768C12.1118 0.000239966 12.3397 0.0784098 12.5227 0.221549C12.7057 0.364688 12.8327 0.564198 12.8828 0.787L13.3075 2.67C13.8668 2.9079 14.3971 3.20539 14.8886 3.557L16.7831 2.972C17.0071 2.90292 17.2487 2.91017 17.4679 2.99256C17.687 3.07495 17.8706 3.22753 17.9881 3.425L19.864 6.578C20.1032 6.985 20.0207 7.5 19.6651 7.817L18.1963 9.117C18.2631 9.70589 18.2631 10.3001 18.1963 10.889L19.6651 12.189C20.0207 12.507 20.1032 13.021 19.864 13.428L17.9881 16.581C17.8705 16.7787 17.6868 16.9314 17.4674 17.0138C17.2481 17.0962 17.0062 17.1033 16.7821 17.034L14.8886 16.449C14.3971 16.8003 13.8668 17.0975 13.3075 17.335L12.8828 19.214C12.8325 19.4366 12.7054 19.6359 12.5224 19.7788C12.3395 19.9218 12.1117 19.9998 11.8768 20ZM5.48617 14.229L6.33138 14.829C6.52206 14.965 6.71997 15.09 6.92612 15.204C7.1199 15.313 7.3178 15.411 7.52292 15.5L8.4846 15.909L8.95566 18H11.0481L11.5191 15.908L12.4808 15.499C12.9003 15.319 13.2992 15.096 13.6693 14.833L14.5145 14.233L16.6192 14.883L17.6655 13.125L16.0338 11.682L16.1492 10.67C16.2008 10.227 16.2008 9.78 16.1492 9.338L16.0338 8.326L17.6665 6.88L16.6192 5.121L14.5155 5.771L13.6693 5.171C13.299 4.90669 12.9006 4.68173 12.4808 4.5L11.5191 4.091L11.0481 2H8.95566L8.48151 4.092L7.52292 4.5C7.10256 4.67861 6.70397 4.90198 6.33447 5.166L5.48823 5.766L3.38551 5.116L2.33724 6.88L3.96891 8.321L3.85346 9.334C3.80193 9.777 3.80193 10.224 3.85346 10.666L3.96891 11.678L2.33724 13.121L3.38344 14.879L5.48617 14.229ZM9.99671 14C8.90323 14 7.85453 13.5786 7.08132 12.8284C6.30811 12.0783 5.87373 11.0609 5.87373 10C5.87373 8.93913 6.30811 7.92172 7.08132 7.17157C7.85453 6.42143 8.90323 6 9.99671 6C11.0902 6 12.1389 6.42143 12.9121 7.17157C13.6853 7.92172 14.1197 8.93913 14.1197 10C14.1197 11.0609 13.6853 12.0783 12.9121 12.8284C12.1389 13.5786 11.0902 14 9.99671 14ZM9.99671 8C9.59302 8.0004 9.19834 8.11577 8.86163 8.33181C8.52492 8.54785 8.261 8.85505 8.10261 9.21528C7.94422 9.57552 7.89834 9.97295 7.97065 10.3583C8.04296 10.7436 8.23029 11.0998 8.50939 11.3828C8.78849 11.6657 9.14707 11.863 9.54066 11.95C9.93425 12.037 10.3455 12.01 10.7234 11.8724C11.1014 11.7347 11.4293 11.4924 11.6666 11.1756C11.9039 10.8587 12.04 10.4812 12.0582 10.09V10.49V10C12.0582 9.46957 11.841 8.96086 11.4544 8.58579C11.0678 8.21071 10.5435 8 9.99671 8Z" fill="#3D3D3D"/>
</svg>
