<svg width="130" height="131" viewBox="0 0 130 131" fill="none" xmlns="http://www.w3.org/2000/svg">
<path d="M129.99 66.1242C129.795 77.417 126.66 88.464 120.896 98.1765C115.131 107.889 106.935 115.932 97.1151 121.512C87.2955 127.092 76.1912 130.018 64.8968 130C53.6023 129.982 42.5074 127.021 32.7056 121.41L42.3939 104.487C49.2552 108.415 57.0216 110.487 64.9277 110.5C72.8339 110.512 80.6068 108.465 87.4806 104.558C94.3543 100.652 100.092 95.0223 104.127 88.2236C108.162 81.4248 110.356 73.6919 110.493 65.7869L129.99 66.1242Z" fill="#FFA439"/>
<path d="M31.3601 120.618C21.6959 114.773 13.7215 106.51 8.22293 96.6443C2.72437 86.7787 -0.108616 75.6505 0.00318457 64.3566C0.114985 53.0626 3.16771 41.9927 8.86051 32.2379C14.5533 22.483 22.6897 14.3798 32.4677 8.72698L42.2274 25.6089C35.3828 29.5659 29.6873 35.2381 25.7024 42.0665C21.7174 48.8949 19.5805 56.6439 19.5022 64.5496C19.424 72.4554 21.4071 80.2451 25.2561 87.151C29.105 94.057 34.6871 99.8409 41.4521 103.933L31.3601 120.618Z" fill="#FF5555"/>
<path d="M33.6585 9.0552C43.5533 3.60926 54.6964 0.835579 65.9896 1.00753C77.2828 1.17949 88.3363 4.29114 98.0607 10.0358C107.785 15.7805 115.845 23.9599 121.446 33.768C127.046 43.576 129.995 54.6742 130 65.9687L110.5 65.9781C110.496 58.0719 108.432 50.3032 104.512 43.4376C100.591 36.5719 94.9496 30.8463 88.1425 26.8251C81.3354 22.8038 73.598 20.6256 65.6927 20.5053C57.7875 20.3849 49.9873 22.3265 43.0609 26.1386L33.6585 9.0552Z" fill="#00C294"/>
</svg>
