<svg width="40" height="40" viewBox="0 0 40 40" fill="none" xmlns="http://www.w3.org/2000/svg">
<g filter="url(#filter0_d_452:5200)">
<path d="M27.875 18.858H14.5325L18.6163 13.8755C18.8072 13.6422 18.8991 13.3413 18.8716 13.0391C18.8442 12.737 18.6997 12.4582 18.47 12.2643C18.2403 12.0703 17.9441 11.977 17.6466 12.0048C17.3491 12.0327 17.0747 12.1795 16.8837 12.4128L11.2588 19.2694C11.2209 19.3239 11.1871 19.3812 11.1575 19.4408C11.1575 19.4979 11.1575 19.5322 11.0788 19.5893C11.0278 19.7203 11.0011 19.8598 11 20.0007C11.0011 20.1416 11.0278 20.2811 11.0788 20.4121C11.0788 20.4692 11.0787 20.5035 11.1575 20.5607C11.1871 20.6202 11.2209 20.6775 11.2588 20.7321L16.8837 27.5886C16.9895 27.7176 17.122 27.8213 17.2717 27.8924C17.4214 27.9635 17.5847 28.0003 17.75 28C18.0129 28.0005 18.2676 27.9075 18.47 27.7372C18.5839 27.6412 18.6781 27.5234 18.7471 27.3905C18.8161 27.2575 18.8586 27.112 18.8722 26.9623C18.8858 26.8127 18.8702 26.6617 18.8263 26.5182C18.7823 26.3747 18.711 26.2414 18.6163 26.1259L14.5325 21.1435H27.875C28.1734 21.1435 28.4595 21.0231 28.6705 20.8088C28.8815 20.5945 29 20.3038 29 20.0007C29 19.6976 28.8815 19.407 28.6705 19.1927C28.4595 18.9784 28.1734 18.858 27.875 18.858Z" fill="#1D1D1D"/>
</g>
<defs>
<filter id="filter0_d_452:5200" x="-4" y="0" width="48" height="48" filterUnits="userSpaceOnUse" color-interpolation-filters="sRGB">
<feFlood flood-opacity="0" result="BackgroundImageFix"/>
<feColorMatrix in="SourceAlpha" type="matrix" values="0 0 0 0 0 0 0 0 0 0 0 0 0 0 0 0 0 0 127 0" result="hardAlpha"/>
<feOffset dy="4"/>
<feGaussianBlur stdDeviation="2"/>
<feComposite in2="hardAlpha" operator="out"/>
<feColorMatrix type="matrix" values="0 0 0 0 0 0 0 0 0 0 0 0 0 0 0 0 0 0 0.25 0"/>
<feBlend mode="normal" in2="BackgroundImageFix" result="effect1_dropShadow_452:5200"/>
<feBlend mode="normal" in="SourceGraphic" in2="effect1_dropShadow_452:5200" result="shape"/>
</filter>
</defs>
</svg>
