<svg width="130" height="130" viewBox="0 0 130 130" fill="none" xmlns="http://www.w3.org/2000/svg">
<g clip-path="url(#clip0_452:4462)">
<path d="M65 125.938C98.6549 125.938 125.938 98.6549 125.938 65C125.938 31.3451 98.6549 4.0625 65 4.0625C31.3451 4.0625 4.0625 31.3451 4.0625 65C4.0625 98.6549 31.3451 125.938 65 125.938Z" fill="#FF9811"/>
<path d="M65 115.781C93.0457 115.781 115.781 93.0457 115.781 65C115.781 36.9543 93.0457 14.2188 65 14.2188C36.9543 14.2188 14.2188 36.9543 14.2188 65C14.2188 93.0457 36.9543 115.781 65 115.781Z" fill="#FFDA44"/>
<path d="M112.781 65C112.781 91.3889 91.3889 112.781 65 112.781C38.6111 112.781 17.2188 91.3889 17.2188 65C17.2188 38.6111 38.6111 17.2188 65 17.2188C91.3889 17.2188 112.781 38.6111 112.781 65Z" fill="#FFDA44" stroke="#E78402" stroke-width="6"/>
<path d="M127 65C127 99.2417 99.2417 127 65 127C30.7583 127 3 99.2417 3 65C3 30.7583 30.7583 3 65 3C99.2417 3 127 30.7583 127 65Z" stroke="#E78402" stroke-width="6"/>
<path d="M23.3477 23.347L106.653 106.653L23.3477 23.347Z" fill="#FF5023"/>
<path d="M23.3477 106.653L106.653 23.347L23.3477 106.653Z" fill="#FF5023"/>
<path d="M50.7812 38.5938C55.2686 38.5938 58.9062 34.9561 58.9062 30.4688C58.9062 25.9814 55.2686 22.3438 50.7812 22.3438C46.2939 22.3438 42.6562 25.9814 42.6562 30.4688C42.6562 34.9561 46.2939 38.5938 50.7812 38.5938Z" fill="#AB2300"/>
<path d="M28.4375 50.7812C30.6812 50.7812 32.5 48.9624 32.5 46.7188C32.5 44.4751 30.6812 42.6562 28.4375 42.6562C26.1938 42.6562 24.375 44.4751 24.375 46.7188C24.375 48.9624 26.1938 50.7812 28.4375 50.7812Z" fill="#FF5023"/>
<path d="M40.625 58.9062C42.8687 58.9062 44.6875 57.0874 44.6875 54.8438C44.6875 52.6001 42.8687 50.7812 40.625 50.7812C38.3813 50.7812 36.5625 52.6001 36.5625 54.8438C36.5625 57.0874 38.3813 58.9062 40.625 58.9062Z" fill="#FF5023"/>
<path d="M31.4844 88.3594C35.9717 88.3594 39.6094 84.7217 39.6094 80.2344C39.6094 75.7471 35.9717 72.1094 31.4844 72.1094C26.9971 72.1094 23.3594 75.7471 23.3594 80.2344C23.3594 84.7217 26.9971 88.3594 31.4844 88.3594Z" fill="#AB2300"/>
<path d="M43.0938 101.156C45.3374 101.156 47.1562 99.3374 47.1562 97.0938C47.1562 94.8501 45.3374 93.0312 43.0938 93.0312C40.8501 93.0312 39.0312 94.8501 39.0312 97.0938C39.0312 99.3374 40.8501 101.156 43.0938 101.156Z" fill="#FF5023"/>
<path d="M62.0938 92.1562C64.3374 92.1562 66.1562 90.3374 66.1562 88.0938C66.1562 85.8501 64.3374 84.0312 62.0938 84.0312C59.8501 84.0312 58.0312 85.8501 58.0312 88.0938C58.0312 90.3374 59.8501 92.1562 62.0938 92.1562Z" fill="#FF5023"/>
<path d="M79.2188 107.656C83.7061 107.656 87.3438 104.019 87.3438 99.5312C87.3438 95.0439 83.7061 91.4062 79.2188 91.4062C74.7314 91.4062 71.0938 95.0439 71.0938 99.5312C71.0938 104.019 74.7314 107.656 79.2188 107.656Z" fill="#AB2300"/>
<path d="M101.562 87.3438C103.806 87.3438 105.625 85.5249 105.625 83.2812C105.625 81.0376 103.806 79.2188 101.562 79.2188C99.3188 79.2188 97.5 81.0376 97.5 83.2812C97.5 85.5249 99.3188 87.3438 101.562 87.3438Z" fill="#FF5023"/>
<path d="M89.375 79.2188C91.6187 79.2188 93.4375 77.3999 93.4375 75.1562C93.4375 72.9126 91.6187 71.0938 89.375 71.0938C87.1313 71.0938 85.3125 72.9126 85.3125 75.1562C85.3125 77.3999 87.1313 79.2188 89.375 79.2188Z" fill="#FF5023"/>
<path d="M98.5156 57.8906C103.003 57.8906 106.641 54.2529 106.641 49.7656C106.641 45.2783 103.003 41.6406 98.5156 41.6406C94.0283 41.6406 90.3906 45.2783 90.3906 49.7656C90.3906 54.2529 94.0283 57.8906 98.5156 57.8906Z" fill="#AB2300"/>
<path d="M82.2656 31.4844C84.5093 31.4844 86.3281 29.6655 86.3281 27.4219C86.3281 25.1782 84.5093 23.3594 82.2656 23.3594C80.022 23.3594 78.2031 25.1782 78.2031 27.4219C78.2031 29.6655 80.022 31.4844 82.2656 31.4844Z" fill="#FF5023"/>
<path d="M74.1406 43.6719C76.3843 43.6719 78.2031 41.853 78.2031 39.6094C78.2031 37.3657 76.3843 35.5469 74.1406 35.5469C71.897 35.5469 70.0781 37.3657 70.0781 39.6094C70.0781 41.853 71.897 43.6719 74.1406 43.6719Z" fill="#FF5023"/>
<path d="M20.5 21L64 64.5H125.5" stroke="#E78402" stroke-width="5"/>
<path d="M125.021 64.6134L63.5039 64.8974L42.4995 123.5" stroke="#E78402" stroke-width="5"/>
<path d="M50.7812 40.625C52.79 40.625 54.7536 40.0294 56.4238 38.9134C58.0939 37.7974 59.3957 36.2112 60.1644 34.3554C60.9331 32.4996 61.1342 30.4575 60.7423 28.4874C60.3505 26.5173 59.3832 24.7076 57.9628 23.2872C56.5424 21.8668 54.7328 20.8995 52.7626 20.5077C50.7925 20.1158 48.7504 20.3169 46.8946 21.0856C45.0388 21.8543 43.4526 23.1561 42.3366 24.8262C41.2207 26.4964 40.625 28.46 40.625 30.4688C40.6282 33.1614 41.6993 35.7428 43.6033 37.6468C45.5072 39.5507 48.0886 40.6218 50.7812 40.625ZM50.7812 24.375C51.9865 24.375 53.1646 24.7324 54.1668 25.402C55.1689 26.0716 55.9499 27.0233 56.4111 28.1368C56.8724 29.2503 56.993 30.4755 56.7579 31.6576C56.5228 32.8397 55.9424 33.9255 55.0902 34.7777C54.238 35.6299 53.1522 36.2103 51.9701 36.4454C50.788 36.6805 49.5628 36.5599 48.4493 36.0987C47.3358 35.6374 46.3841 34.8564 45.7145 33.8543C45.0449 32.8522 44.6875 31.674 44.6875 30.4688C44.6875 28.8526 45.3295 27.3026 46.4723 26.1598C47.6151 25.017 49.1651 24.375 50.7812 24.375Z" fill="#C23814"/>
<path d="M28.4375 52.8125C29.6427 52.8125 30.8209 52.4551 31.823 51.7855C32.8251 51.1159 33.6062 50.1642 34.0674 49.0507C34.5286 47.9373 34.6493 46.712 34.4142 45.5299C34.179 44.3479 33.5987 43.2621 32.7464 42.4098C31.8942 41.5576 30.8084 40.9772 29.6263 40.7421C28.4443 40.507 27.219 40.6277 26.1055 41.0889C24.992 41.5501 24.0403 42.3312 23.3707 43.3333C22.7011 44.3354 22.3438 45.5135 22.3438 46.7188C22.3438 48.3349 22.9858 49.8849 24.1286 51.0277C25.2714 52.1705 26.8213 52.8125 28.4375 52.8125ZM28.4375 44.6875C28.8392 44.6875 29.232 44.8066 29.566 45.0298C29.9 45.253 30.1604 45.5703 30.3141 45.9414C30.4679 46.3126 30.5081 46.721 30.4297 47.115C30.3513 47.5091 30.1579 47.871 29.8738 48.1551C29.5897 48.4392 29.2278 48.6326 28.8338 48.711C28.4398 48.7894 28.0313 48.7491 27.6602 48.5954C27.289 48.4417 26.9718 48.1813 26.7486 47.8473C26.5254 47.5132 26.4063 47.1205 26.4063 46.7188C26.4063 46.18 26.6203 45.6634 27.0012 45.2825C27.3821 44.9015 27.8988 44.6875 28.4375 44.6875Z" fill="#C23814"/>
<path d="M40.625 60.9375C41.8302 60.9375 43.0084 60.5801 44.0105 59.9105C45.0126 59.2409 45.7937 58.2892 46.2549 57.1757C46.7161 56.0623 46.8368 54.837 46.6017 53.6549C46.3665 52.4729 45.7862 51.3871 44.9339 50.5348C44.0817 49.6826 42.9959 49.1022 41.8138 48.8671C40.6318 48.632 39.4065 48.7527 38.293 49.2139C37.1795 49.6751 36.2278 50.4562 35.5582 51.4583C34.8886 52.4604 34.5312 53.6385 34.5312 54.8438C34.5313 56.4599 35.1733 58.0099 36.3161 59.1527C37.4589 60.2955 39.0088 60.9375 40.625 60.9375ZM40.625 52.8125C41.0267 52.8125 41.4195 52.9316 41.7535 53.1548C42.0875 53.378 42.3479 53.6953 42.5016 54.0664C42.6554 54.4376 42.6956 54.846 42.6172 55.24C42.5388 55.6341 42.3454 55.996 42.0613 56.2801C41.7772 56.5642 41.4153 56.7576 41.0213 56.836C40.6273 56.9144 40.2188 56.8741 39.8477 56.7204C39.4765 56.5667 39.1593 56.3063 38.9361 55.9723C38.7129 55.6382 38.5937 55.2455 38.5937 54.8438C38.5937 54.305 38.8078 53.7884 39.1887 53.4075C39.5696 53.0265 40.0863 52.8125 40.625 52.8125Z" fill="#C23814"/>
<path d="M31.4844 90.3906C33.4931 90.3906 35.4567 89.795 37.1269 88.679C38.7971 87.563 40.0988 85.9768 40.8675 84.121C41.6362 82.2652 41.8374 80.2231 41.4455 78.253C41.0536 76.2828 40.0863 74.4732 38.6659 73.0528C37.2456 71.6324 35.4359 70.6651 33.4658 70.2732C31.4956 69.8814 29.4536 70.0825 27.5977 70.8512C25.7419 71.6199 24.1557 72.9217 23.0398 74.5918C21.9238 76.262 21.3281 78.2256 21.3281 80.2344C21.3314 82.927 22.4024 85.5084 24.3064 87.4123C26.2104 89.3163 28.7918 90.3874 31.4844 90.3906ZM31.4844 74.1406C32.6896 74.1406 33.8678 74.498 34.8699 75.1676C35.872 75.8372 36.653 76.7889 37.1143 77.9024C37.5755 79.0159 37.6962 80.2411 37.461 81.4232C37.2259 82.6053 36.6455 83.6911 35.7933 84.5433C34.9411 85.3955 33.8553 85.9759 32.6732 86.211C31.4911 86.4461 30.2659 86.3255 29.1524 85.8642C28.0389 85.403 27.0872 84.622 26.4176 83.6199C25.748 82.6177 25.3906 81.4396 25.3906 80.2344C25.3906 78.6182 26.0326 77.0682 27.1754 75.9254C28.3182 74.7826 29.8682 74.1406 31.4844 74.1406Z" fill="#C23814"/>
<path d="M43.0937 103.188C44.299 103.188 45.4771 102.83 46.4793 102.161C47.4814 101.491 48.2624 100.539 48.7236 99.4257C49.1849 98.3122 49.3055 97.087 49.0704 95.9049C48.8353 94.7229 48.2549 93.637 47.4027 92.7848C46.5505 91.9326 45.4647 91.3522 44.2826 91.1171C43.1005 90.882 41.8753 91.0026 40.7618 91.4639C39.6483 91.9251 38.6966 92.7061 38.027 93.7082C37.3574 94.7104 37 95.8885 37 97.0938C37 98.7099 37.642 100.26 38.7848 101.403C39.9276 102.545 41.4776 103.188 43.0937 103.188ZM43.0937 95.0625C43.4955 95.0625 43.8882 95.1816 44.2223 95.4048C44.5563 95.628 44.8166 95.9453 44.9704 96.3164C45.1241 96.6876 45.1643 97.096 45.086 97.49C45.0076 97.8841 44.8141 98.246 44.5301 98.5301C44.246 98.8141 43.8841 99.0076 43.49 99.086C43.096 99.1643 42.6876 99.1241 42.3164 98.9704C41.9453 98.8166 41.628 98.5563 41.4048 98.2223C41.1816 97.8882 41.0625 97.4955 41.0625 97.0938C41.0625 96.555 41.2765 96.0384 41.6574 95.6574C42.0384 95.2765 42.555 95.0625 43.0937 95.0625Z" fill="#C23814"/>
<path d="M62.0937 94.1875C63.299 94.1875 64.4771 93.8301 65.4793 93.1605C66.4814 92.4909 67.2624 91.5392 67.7236 90.4257C68.1849 89.3122 68.3055 88.087 68.0704 86.9049C67.8353 85.7229 67.2549 84.637 66.4027 83.7848C65.5505 82.9326 64.4647 82.3522 63.2826 82.1171C62.1005 81.882 60.8753 82.0026 59.7618 82.4639C58.6483 82.9251 57.6966 83.7061 57.027 84.7082C56.3574 85.7104 56 86.8885 56 88.0938C56 89.7099 56.642 91.2599 57.7848 92.4027C58.9276 93.5455 60.4776 94.1875 62.0937 94.1875ZM62.0937 86.0625C62.4955 86.0625 62.8882 86.1816 63.2223 86.4048C63.5563 86.628 63.8166 86.9453 63.9704 87.3164C64.1241 87.6876 64.1643 88.096 64.086 88.49C64.0076 88.8841 63.8141 89.246 63.5301 89.5301C63.246 89.8141 62.8841 90.0076 62.49 90.086C62.096 90.1643 61.6876 90.1241 61.3164 89.9704C60.9453 89.8166 60.628 89.5563 60.4048 89.2223C60.1816 88.8882 60.0625 88.4955 60.0625 88.0938C60.0625 87.555 60.2765 87.0384 60.6574 86.6574C61.0384 86.2765 61.555 86.0625 62.0937 86.0625Z" fill="#C23814"/>
<path d="M26.4062 56.875H24.375C23.8363 56.875 23.3196 57.089 22.9387 57.4699C22.5578 57.8509 22.3438 58.3675 22.3438 58.9062C22.3438 59.445 22.5578 59.9616 22.9387 60.3425C23.3196 60.7235 23.8363 60.9375 24.375 60.9375H26.4062C26.945 60.9375 27.4616 60.7235 27.8426 60.3425C28.2235 59.9616 28.4375 59.445 28.4375 58.9062C28.4375 58.3675 28.2235 57.8509 27.8426 57.4699C27.4616 57.089 26.945 56.875 26.4062 56.875Z" fill="#231F20"/>
<path d="M58.9062 42.6563H56.875C56.3363 42.6563 55.8196 42.8703 55.4387 43.2512C55.0578 43.6321 54.8438 44.1488 54.8438 44.6875C54.8438 45.2262 55.0578 45.7429 55.4387 46.1238C55.8196 46.5048 56.3363 46.7188 56.875 46.7188H58.9062C59.445 46.7188 59.9616 46.5048 60.3426 46.1238C60.7235 45.7429 60.9375 45.2262 60.9375 44.6875C60.9375 44.1488 60.7235 43.6321 60.3426 43.2512C59.9616 42.8703 59.445 42.6563 58.9062 42.6563Z" fill="#231F20"/>
<path d="M46.7188 75.1562H48.75C49.2887 75.1562 49.8054 74.9422 50.1863 74.5613C50.5672 74.1803 50.7812 73.6637 50.7812 73.125C50.7812 72.5862 50.5672 72.0696 50.1863 71.6887C49.8054 71.3077 49.2887 71.0937 48.75 71.0937H46.7188C46.18 71.0937 45.6634 71.3077 45.2824 71.6887C44.9015 72.0696 44.6875 72.5862 44.6875 73.125C44.6875 73.6637 44.9015 74.1803 45.2824 74.5613C45.6634 74.9422 46.18 75.1562 46.7188 75.1562Z" fill="#231F20"/>
<path d="M57.4697 100.126L55.4385 102.158C55.2445 102.345 55.0897 102.569 54.9833 102.817C54.8768 103.065 54.8208 103.331 54.8184 103.601C54.8161 103.871 54.8675 104.138 54.9696 104.388C55.0718 104.637 55.2226 104.864 55.4133 105.055C55.604 105.246 55.8308 105.396 56.0804 105.499C56.3301 105.601 56.5976 105.652 56.8673 105.65C57.137 105.647 57.4035 105.591 57.6513 105.485C57.8991 105.379 58.1233 105.224 58.3107 105.03L60.3419 102.999C60.7119 102.615 60.9167 102.102 60.912 101.57C60.9074 101.037 60.6938 100.528 60.3172 100.151C59.9406 99.7744 59.4311 99.5608 58.8985 99.5562C58.3659 99.5516 57.8528 99.7563 57.4697 100.126Z" fill="#231F20"/>
<path d="M79.2188 89.375C77.21 89.375 75.2464 89.9706 73.5762 91.0866C71.9061 92.2026 70.6043 93.7888 69.8356 95.6446C69.0669 97.5004 68.8658 99.5425 69.2577 101.513C69.6495 103.483 70.6168 105.292 72.0372 106.713C73.4576 108.133 75.2672 109.1 77.2374 109.492C79.2075 109.884 81.2496 109.683 83.1054 108.914C84.9612 108.146 86.5474 106.844 87.6634 105.174C88.7794 103.504 89.375 101.54 89.375 99.5312C89.3718 96.8386 88.3007 94.2572 86.3967 92.3532C84.4928 90.4493 81.9114 89.3782 79.2188 89.375ZM79.2188 105.625C78.0135 105.625 76.8354 105.268 75.8333 104.598C74.8311 103.928 74.0501 102.977 73.5889 101.863C73.1276 100.75 73.007 99.5245 73.2421 98.3424C73.4772 97.1603 74.0576 96.0745 74.9098 95.2223C75.7621 94.3701 76.8479 93.7897 78.0299 93.5546C79.212 93.3194 80.4372 93.4401 81.5507 93.9013C82.6642 94.3626 83.6159 95.1436 84.2855 96.1457C84.9551 97.1478 85.3125 98.326 85.3125 99.5312C85.3125 101.147 84.6705 102.697 83.5277 103.84C82.3849 104.983 80.8349 105.625 79.2188 105.625Z" fill="#C23814"/>
<path d="M101.563 77.1875C100.357 77.1875 99.1791 77.5449 98.177 78.2145C97.1749 78.884 96.3938 79.8358 95.9326 80.9492C95.4714 82.0627 95.3507 83.288 95.5858 84.47C95.821 85.6521 96.4013 86.7379 97.2536 87.5901C98.1058 88.4424 99.1916 89.0227 100.374 89.2579C101.556 89.493 102.781 89.3723 103.894 88.9111C105.008 88.4499 105.96 87.6688 106.629 86.6667C107.299 85.6646 107.656 84.4864 107.656 83.2812C107.656 81.6651 107.014 80.1151 105.871 78.9723C104.729 77.8295 103.179 77.1875 101.563 77.1875ZM101.563 85.3125C101.161 85.3125 100.768 85.1933 100.434 84.9701C100.1 84.7469 99.8396 84.4297 99.6859 84.0585C99.5321 83.6874 99.4919 83.279 99.5703 82.8849C99.6487 82.4909 99.8421 82.129 100.126 81.8449C100.41 81.5608 100.772 81.3674 101.166 81.289C101.56 81.2106 101.969 81.2509 102.34 81.4046C102.711 81.5583 103.028 81.8187 103.251 82.1527C103.475 82.4868 103.594 82.8795 103.594 83.2812C103.594 83.8199 103.38 84.3366 102.999 84.7175C102.618 85.0985 102.101 85.3125 101.563 85.3125Z" fill="#C23814"/>
<path d="M89.375 69.0625C88.1698 69.0625 86.9916 69.4199 85.9895 70.0895C84.9874 70.759 84.2063 71.7108 83.7451 72.8242C83.2839 73.9377 83.1632 75.163 83.3983 76.345C83.6335 77.5271 84.2138 78.6129 85.0661 79.4651C85.9183 80.3174 87.0041 80.8977 88.1862 81.1329C89.3682 81.368 90.5935 81.2473 91.707 80.7861C92.8205 80.3249 93.7722 79.5438 94.4418 78.5417C95.1114 77.5396 95.4688 76.3614 95.4688 75.1562C95.4688 73.5401 94.8267 71.9901 93.6839 70.8473C92.5411 69.7045 90.9912 69.0625 89.375 69.0625ZM89.375 77.1875C88.9733 77.1875 88.5805 77.0683 88.2465 76.8451C87.9125 76.6219 87.6521 76.3047 87.4984 75.9335C87.3446 75.5624 87.3044 75.154 87.3828 74.7599C87.4612 74.3659 87.6546 74.004 87.9387 73.7199C88.2228 73.4358 88.5847 73.2424 88.9787 73.164C89.3728 73.0856 89.7812 73.1259 90.1523 73.2796C90.5235 73.4333 90.8407 73.6937 91.0639 74.0277C91.2871 74.3618 91.4063 74.7545 91.4063 75.1562C91.4063 75.6949 91.1923 76.2116 90.8113 76.5925C90.4304 76.9735 89.9137 77.1875 89.375 77.1875Z" fill="#C23814"/>
<path d="M98.5156 39.6094C96.5069 39.6094 94.5433 40.205 92.8731 41.321C91.2029 42.437 89.9012 44.0232 89.1325 45.879C88.3638 47.7348 88.1626 49.7769 88.5545 51.747C88.9464 53.7171 89.9137 55.5268 91.3341 56.9472C92.7545 58.3676 94.5641 59.3349 96.5342 59.7267C98.5044 60.1186 100.546 59.9175 102.402 59.1488C104.258 58.3801 105.844 57.0783 106.96 55.4082C108.076 53.738 108.672 51.7744 108.672 49.7656C108.669 47.073 107.598 44.4916 105.694 42.5876C103.79 40.6837 101.208 39.6126 98.5156 39.6094ZM98.5156 55.8594C97.3104 55.8594 96.1322 55.502 95.1301 54.8324C94.128 54.1628 93.347 53.2111 92.8857 52.0976C92.4245 50.9841 92.3038 49.7589 92.539 48.5768C92.7741 47.3947 93.3545 46.3089 94.2067 45.4567C95.0589 44.6045 96.1447 44.0241 97.3268 43.789C98.5089 43.5539 99.7341 43.6745 100.848 44.1357C101.961 44.597 102.913 45.378 103.582 46.3801C104.252 47.3822 104.609 48.5604 104.609 49.7656C104.609 51.3818 103.967 52.9318 102.825 54.0746C101.682 55.2174 100.132 55.8594 98.5156 55.8594Z" fill="#C23814"/>
<path d="M82.2656 21.3281C81.0604 21.3281 79.8822 21.6855 78.8801 22.3551C77.878 23.0247 77.097 23.9764 76.6357 25.0899C76.1745 26.2034 76.0538 27.4286 76.289 28.6107C76.5241 29.7928 77.1045 30.8786 77.9567 31.7308C78.8089 32.583 79.8947 33.1634 81.0768 33.3985C82.2589 33.6337 83.4841 33.513 84.5976 33.0518C85.7111 32.5905 86.6628 31.8095 87.3324 30.8074C88.002 29.8053 88.3594 28.6271 88.3594 27.4219C88.3594 25.8057 87.7174 24.2557 86.5746 23.1129C85.4318 21.9701 83.8818 21.3281 82.2656 21.3281ZM82.2656 29.4531C81.8639 29.4531 81.4712 29.334 81.1371 29.1108C80.8031 28.8876 80.5427 28.5704 80.389 28.1992C80.2353 27.828 80.195 27.4196 80.2734 27.0256C80.3518 26.6316 80.5452 26.2696 80.8293 25.9856C81.1134 25.7015 81.4753 25.508 81.8694 25.4297C82.2634 25.3513 82.6718 25.3915 83.043 25.5452C83.4141 25.699 83.7314 25.9593 83.9546 26.2934C84.1778 26.6274 84.2969 27.0201 84.2969 27.4219C84.2969 27.9606 84.0829 28.4773 83.7019 28.8582C83.321 29.2391 82.8044 29.4531 82.2656 29.4531Z" fill="#C23814"/>
<path d="M74.1406 33.5156C72.9354 33.5156 71.7572 33.873 70.7551 34.5426C69.753 35.2122 68.972 36.1639 68.5107 37.2774C68.0495 38.3909 67.9288 39.6162 68.164 40.7982C68.3991 41.9803 68.9795 43.0661 69.8317 43.9183C70.6839 44.7706 71.7697 45.3509 72.9518 45.5861C74.1339 45.8212 75.3591 45.7005 76.4726 45.2393C77.5861 44.7781 78.5378 43.997 79.2074 42.9949C79.877 41.9928 80.2344 40.8146 80.2344 39.6094C80.2344 37.9932 79.5924 36.4433 78.4496 35.3005C77.3068 34.1577 75.7568 33.5156 74.1406 33.5156ZM74.1406 41.6406C73.7389 41.6406 73.3462 41.5215 73.0121 41.2983C72.6781 41.0751 72.4177 40.7579 72.264 40.3867C72.1103 40.0156 72.07 39.6071 72.1484 39.2131C72.2268 38.8191 72.4202 38.4572 72.7043 38.1731C72.9884 37.889 73.3503 37.6955 73.7444 37.6172C74.1384 37.5388 74.5468 37.579 74.918 37.7328C75.2891 37.8865 75.6064 38.1469 75.8296 38.4809C76.0528 38.8149 76.1719 39.2076 76.1719 39.6094C76.1719 40.1481 75.9579 40.6648 75.5769 41.0457C75.196 41.4266 74.6794 41.6406 74.1406 41.6406Z" fill="#C23814"/>
<path d="M103.594 73.125H105.625C106.164 73.125 106.68 72.911 107.061 72.53C107.442 72.1491 107.656 71.6324 107.656 71.0937C107.656 70.555 107.442 70.0383 107.061 69.6574C106.68 69.2765 106.164 69.0625 105.625 69.0625H103.594C103.055 69.0625 102.538 69.2765 102.157 69.6574C101.777 70.0383 101.562 70.555 101.562 71.0937C101.562 71.6324 101.777 72.1491 102.157 72.53C102.538 72.911 103.055 73.125 103.594 73.125Z" fill="#231F20"/>
<path d="M71.0938 87.3437H73.125C73.6637 87.3437 74.1804 87.1297 74.5613 86.7488C74.9422 86.3678 75.1562 85.8512 75.1562 85.3125C75.1562 84.7737 74.9422 84.2571 74.5613 83.8762C74.1804 83.4952 73.6637 83.2812 73.125 83.2812H71.0938C70.555 83.2812 70.0384 83.4952 69.6574 83.8762C69.2765 84.2571 69.0625 84.7737 69.0625 85.3125C69.0625 85.8512 69.2765 86.3678 69.6574 86.7488C70.0384 87.1297 70.555 87.3437 71.0938 87.3437Z" fill="#231F20"/>
<path d="M83.2812 54.8437H81.25C80.7113 54.8437 80.1946 55.0577 79.8137 55.4387C79.4328 55.8196 79.2188 56.3362 79.2188 56.875C79.2188 57.4137 79.4328 57.9303 79.8137 58.3113C80.1946 58.6922 80.7113 58.9062 81.25 58.9062H83.2812C83.82 58.9062 84.3366 58.6922 84.7176 58.3113C85.0985 57.9303 85.3125 57.4137 85.3125 56.875C85.3125 56.3362 85.0985 55.8196 84.7176 55.4387C84.3366 55.0577 83.82 54.8437 83.2812 54.8437Z" fill="#231F20"/>
<path d="M71.0933 30.4687C71.632 30.4686 72.1486 30.2545 72.5294 29.8735L74.5607 27.8423C74.9307 27.4592 75.1354 26.9461 75.1308 26.4135C75.1262 25.8809 74.9125 25.3715 74.5359 24.9949C74.1593 24.6182 73.6498 24.4046 73.1173 24.4C72.5847 24.3954 72.0716 24.6001 71.6885 24.9701L69.6572 27.0014C69.3732 27.2854 69.1798 27.6473 69.1015 28.0413C69.0232 28.4353 69.0634 28.8436 69.2171 29.2147C69.3708 29.5858 69.6311 29.903 69.965 30.1262C70.299 30.3494 70.6916 30.4686 71.0933 30.4687Z" fill="#231F20"/>
</g>
<defs>
<clipPath id="clip0_452:4462">
<rect width="130" height="130" fill="white"/>
</clipPath>
</defs>
</svg>
